<?xml version="1.0" encoding="UTF-8"?>
<svg version="1.1" xmlns="http://www.w3.org/2000/svg" width="2067" height="935">
<path d="M0 0 C249.48 0 498.96 0 756 0 C759.3 10.23 762.6 20.46 766 31 C768.82321318 39.62499364 768.82321318 39.62499364 771.65234375 48.24804688 C778.23597514 68.29048671 784.67327398 88.37501977 791 108.5 C796.92779502 127.35567593 802.95245174 146.1750084 809.11526489 164.95516968 C814.12423312 180.21960253 819.05791061 195.50622673 823.9375 210.8125 C829.42544052 228.02484562 834.99481899 245.20867089 840.625 262.375 C845.83786354 278.27914764 851.0280594 294.19013656 856.12493896 310.13189697 C856.74523743 312.0708092 857.36700037 314.00925358 857.99029541 315.94720459 C858.84296622 318.60014519 859.68994806 321.25483023 860.53515625 323.91015625 C860.78736435 324.69186691 861.03957245 325.47357758 861.29942322 326.27897644 C862.25361446 329.29611617 863 331.81490565 863 335 C863.66 335 864.32 335 865 335 C865.26627197 334.42813965 865.53254395 333.8562793 865.80688477 333.26708984 C867.05619085 330.89322933 868.47692559 328.86905664 870.08984375 326.7265625 C870.70384033 325.90873291 871.31783691 325.09090332 871.95043945 324.24829102 C872.93403442 322.94976196 872.93403442 322.94976196 873.9375 321.625 C874.61192139 320.73031006 875.28634277 319.83562012 875.98120117 318.91381836 C880.73339037 312.62699172 885.56072916 306.40455806 890.453125 300.2265625 C894.27737257 295.39516577 898.01772547 290.4991872 901.76611328 285.60888672 C903.84092587 282.90350188 905.92072853 280.20195834 908 277.5 C908.83335693 276.41668482 909.66669027 275.33335149 910.5 274.25 C955.50000001 215.74999999 955.50000001 215.74999999 956.74926758 214.12597656 C957.58507376 213.03941221 958.42084835 211.95282355 959.2565918 210.86621094 C961.30183636 208.20711452 963.34769991 205.5485006 965.39453125 202.890625 C970.1076 196.76896543 974.80874598 190.63839588 979.5 184.5 C984.98562442 177.32218908 990.48796751 170.15754953 996 163 C997.66695292 160.83355349 999.33347413 158.66677503 1001 156.5 C1001.83332547 155.41666062 1002.6666588 154.33332728 1003.5 153.25 C1003.9125 152.71375 1004.325 152.1775 1004.75 151.625 C1022.66666667 128.33333333 1040.58333333 105.04166667 1058.5 81.75 C1058.91217773 81.21415283 1059.32435547 80.67830566 1059.74902344 80.1262207 C1060.5855491 79.03876999 1061.42213803 77.95136793 1062.25878906 76.86401367 C1064.29379288 74.21906213 1066.32756533 71.57318888 1068.359375 68.92578125 C1073.1537507 62.68212532 1077.97406812 56.45958574 1082.8125 50.25 C1087.40466132 44.35564891 1091.96893451 38.44143842 1096.5 32.5 C1101.14075599 26.41726168 1105.80724362 20.35522739 1110.5 14.3125 C1111.07556641 13.57 1111.65113281 12.8275 1112.24414062 12.0625 C1112.79263672 11.35738281 1113.34113281 10.65226563 1113.90625 9.92578125 C1114.62264648 9.00406128 1114.62264648 9.00406128 1115.35351562 8.0637207 C1115.89685547 7.38269287 1116.44019531 6.70166504 1117 6 C1117.70342879 4.98283577 1118.40685759 3.96567153 1119.13160241 2.91768414 C1121.34399415 0.2896527 1121.88421739 0.02502072 1125.46432292 -0.74864298 C1126.82283439 -0.77857367 1128.1823141 -0.77566118 1129.54084587 -0.74666691 C1130.67268814 -0.75839969 1130.67268814 -0.75839969 1131.82739592 -0.7703695 C1134.36517282 -0.78931444 1136.90073447 -0.76536038 1139.43844604 -0.74171448 C1141.27271162 -0.74647809 1143.10697194 -0.75386825 1144.94121754 -0.76366371 C1149.98963395 -0.78294096 1155.0373308 -0.76467195 1160.08570004 -0.74037087 C1165.52867914 -0.72066294 1170.97157675 -0.73548131 1176.41456604 -0.74601746 C1187.08784617 -0.76116373 1197.76084795 -0.74418693 1208.43409352 -0.71646655 C1220.88300985 -0.68530132 1233.33186606 -0.68552578 1245.78081407 -0.68698429 C1268.6956451 -0.68853306 1291.61035691 -0.65839808 1314.52513495 -0.61347697 C1335.38429078 -0.57273517 1356.24334374 -0.55388758 1377.10253906 -0.5559082 C1378.43821573 -0.55602944 1379.77389239 -0.55615052 1381.10956906 -0.55627144 C1381.76993482 -0.55633249 1382.43030059 -0.55639355 1383.11067744 -0.55645645 C1408.32945912 -0.55875033 1433.54818836 -0.54169505 1458.76695427 -0.51417865 C1467.41871283 -0.50517998 1476.07046247 -0.50194582 1484.72222519 -0.50058174 C1495.30460825 -0.49851865 1505.88691062 -0.48489916 1516.46925955 -0.45758332 C1521.85632135 -0.4438804 1527.24328119 -0.43453556 1532.63036156 -0.43836594 C1562.75519336 -0.45495866 1592.15079353 0.79661919 1621.875 6.125 C1622.71321289 6.2720639 1623.55142578 6.41912781 1624.41503906 6.57064819 C1697.01820021 19.33513911 1780.56038675 39.7543594 1834 94 C1834.54205078 94.52327881 1835.08410156 95.04655762 1835.64257812 95.58569336 C1839.99213958 99.81570195 1843.78322487 104.28595989 1847.4375 109.125 C1848.00170654 109.87072266 1848.56591309 110.61644531 1849.1472168 111.38476562 C1874.71728725 145.58075156 1886.74566232 189.1028744 1880.875 231.5625 C1875.0575808 269.47541132 1859.07722819 306.77158914 1837 338 C1836.52256348 338.68497559 1836.04512695 339.36995117 1835.55322266 340.07568359 C1827.60333442 351.43023489 1819.06550142 361.77775571 1809.32958984 371.63964844 C1807.19793945 373.79944681 1805.08038496 375.9723612 1802.96539307 378.14845276 C1783.78158535 397.85433782 1783.78158535 397.85433782 1773.77636719 404.76708984 C1771.66723441 406.23096018 1769.5888881 407.73480148 1767.5078125 409.23828125 C1748.55189416 422.833861 1728.8644124 434.58102065 1708 445 C1707.2044873 445.4017041 1706.40897461 445.8034082 1705.58935547 446.21728516 C1670.71323591 463.74120993 1632.67826462 476.08337531 1595 486 C1593.27450928 486.46116211 1593.27450928 486.46116211 1591.51416016 486.93164062 C1536.29932605 501.62145883 1479.03245819 510.68256019 1422 514 C1421.35533169 514.03988222 1420.71066339 514.07976444 1420.04645967 514.12085521 C1405.40416637 515.01571572 1390.80380366 515.13671252 1376.13769531 515.11352539 C1373.60275778 515.11324265 1371.06782017 515.11340295 1368.53288269 515.1139679 C1363.11859774 515.11419386 1357.70432842 515.11140182 1352.29004669 515.10573006 C1344.46230988 515.09753548 1336.63457887 515.09499177 1328.80683824 515.09374207 C1316.10087711 515.09156392 1303.39492246 515.08493769 1290.68896484 515.07543945 C1278.36051465 515.06623311 1266.03206623 515.05916812 1253.70361328 515.05493164 C1252.94120989 515.05466892 1252.17880649 515.05440619 1251.39329997 515.05413551 C1247.56780635 515.05283029 1243.74231273 515.05156662 1239.9168191 515.05032361 C1208.27787468 515.03998958 1176.63893833 515.02232995 1145 515 C1146.00711056 506.50363978 1146.00711056 506.50363978 1146.95013428 502.47529602 C1147.13670877 501.66921528 1147.32328325 500.86313454 1147.51551151 500.03262711 C1147.71889857 499.17277081 1147.92228563 498.31291451 1148.13183594 497.42700195 C1148.34940017 496.49238506 1148.5669644 495.55776817 1148.79112148 494.59482956 C1149.51835513 491.47506707 1150.2513975 488.3566988 1150.984375 485.23828125 C1151.50862388 482.99410198 1152.03248354 480.74983176 1152.5559845 478.50547791 C1153.68655966 473.66176076 1154.81962564 468.81863558 1155.95462036 463.97595215 C1157.7772614 456.19881685 1159.59419862 448.42035616 1161.40991211 440.64160156 C1161.87870686 438.63338517 1162.347512 436.62517121 1162.81632048 434.61695802 C1163.13205361 433.26446519 1163.44777967 431.91197071 1163.76349872 430.55947459 C1164.89061274 425.7313163 1166.01847719 420.90333366 1167.14659119 416.07540894 C1173.37953006 389.39842073 1179.57334399 362.71240971 1185.76000977 336.0246582 C1187.56115764 328.25517289 1189.36348457 320.48596139 1191.16601562 312.71679688 C1196.36236537 290.31861476 1201.55661074 267.91995125 1206.74196148 245.51922035 C1209.20079254 234.89715029 1211.66118854 224.27544363 1214.12264729 213.65398216 C1215.85596498 206.17390107 1217.5870617 198.69331062 1219.31647968 191.212327 C1220.37348287 186.6423911 1221.43257252 182.07294072 1222.49227333 177.50362968 C1222.98293962 175.38595523 1223.47271994 173.26807527 1223.96156883 171.14998055 C1224.62537709 168.27432899 1225.29226518 165.39940919 1225.95996094 162.5246582 C1226.25101636 161.25861692 1226.25101636 161.25861692 1226.5479517 159.96699905 C1227.88589495 154.22821009 1227.88589495 154.22821009 1229 152 C1295.33 152 1361.66 152 1430 152 C1429.33281295 158.00468344 1428.5598736 163.59067532 1427.20361328 169.4206543 C1427.02194422 170.21998666 1426.84027515 171.01931902 1426.65310097 171.84287357 C1426.04692152 174.50443155 1425.43361847 177.16429468 1424.8203125 179.82421875 C1424.37938849 181.75342072 1423.93891041 183.68272465 1423.49884033 185.61212158 C1422.29811075 190.87071505 1421.09119917 196.12787265 1419.88323212 201.38480759 C1418.606818 206.94458687 1417.33617887 212.50568565 1416.06494141 218.06665039 C1413.87907065 227.62522223 1411.68968822 237.18298408 1409.49804688 246.74023438 C1406.02751411 261.87505285 1402.56475936 277.0116445 1399.10331774 292.14854407 C1397.72638993 298.16977671 1396.34929666 304.19097151 1394.97216797 310.2121582 C1394.82230777 310.86739774 1394.67244756 311.52263728 1394.51804614 312.19773257 C1392.30511579 321.87323881 1390.09079633 331.54842652 1387.87548828 341.22338867 C1387.5954319 342.4465447 1387.31537552 343.66970074 1387.02683258 344.9299221 C1385.71662975 350.65216738 1384.40624029 356.37436981 1383.09552002 362.09649658 C1380.0501103 375.39459268 1377.01873841 388.69582368 1374 402 C1453.17030639 400.29827507 1544.87384681 393.2307179 1610 343 C1610.90105469 342.31035156 1611.80210938 341.62070312 1612.73046875 340.91015625 C1618.73163584 336.21156806 1624.42209491 331.19131761 1630 326 C1630.67804688 325.37609375 1631.35609375 324.7521875 1632.0546875 324.109375 C1655.18491114 302.00096847 1670.4465804 269.65773822 1674 238 C1674.10957031 237.03320312 1674.21914062 236.06640625 1674.33203125 235.0703125 C1676.57122394 212.08126759 1673.50183292 190.676603 1659 172 C1658.0925 171.1028125 1657.185 170.205625 1656.25 169.28125 C1654 167 1654 167 1654 165 C1653.41863281 164.74347656 1652.83726563 164.48695313 1652.23828125 164.22265625 C1649.79593858 162.88853189 1648.17634553 161.37927227 1646.1875 159.4375 C1591.93046992 110.63255398 1498.07502575 113.55847936 1430.12890625 113.1796875 C1428.78971527 113.17173035 1427.45052471 113.16370339 1426.11133456 113.1556077 C1413.57214611 113.08009817 1401.03294054 113.01419223 1388.493577 112.97642326 C1385.62763492 112.96764081 1382.76169321 112.95875448 1379.89575195 112.94970703 C1378.82786724 112.9463498 1378.82786724 112.9463498 1377.73840909 112.94292475 C1366.13493514 112.90473417 1354.53281502 112.80461925 1342.92997766 112.68030153 C1330.93368585 112.55284216 1318.93809202 112.48232758 1306.94112533 112.46666157 C1300.23715491 112.45647121 1293.53567556 112.42007155 1286.83233833 112.32235336 C1280.54933914 112.23200307 1274.27010401 112.21320246 1267.98659325 112.24850464 C1265.69076074 112.24916523 1263.39475001 112.22437836 1261.09952545 112.17154312 C1248.03442612 111.56878412 1248.03442612 111.56878412 1236.83128166 117.27222061 C1233.94512246 120.35690503 1231.52731204 123.66350938 1229.22386444 127.19799066 C1227.47245504 129.77675348 1225.39330447 131.99412482 1223.25 134.25 C1220.28032028 137.52149835 1217.45660445 140.86969572 1214.6875 144.3125 C1210.79744069 149.12585437 1206.67128166 153.6476145 1202.44433594 158.16113281 C1198.52121407 162.37393141 1194.88103586 166.76395352 1191.27734375 171.25390625 C1188.33922549 174.79678299 1185.21768822 178.15441772 1182.08349609 181.52197266 C1179.11269934 184.73316873 1176.30031679 188.02636841 1173.5625 191.4375 C1169.71954521 196.21541338 1165.63168671 200.68994984 1161.44384766 205.16162109 C1157.52093146 209.37429105 1153.88088976 213.76413555 1150.27734375 218.25390625 C1147.33922549 221.79678299 1144.21768822 225.15441772 1141.08349609 228.52197266 C1138.11269934 231.73316873 1135.30031679 235.02636841 1132.5625 238.4375 C1128.71889943 243.21621628 1124.63039836 247.69157687 1120.44165039 252.16381836 C1117.32446055 255.51099327 1114.36426202 258.93005023 1111.5 262.5 C1108.15698041 266.6666621 1104.64884863 270.60419812 1101 274.5 C1096.54125556 279.26088994 1092.3620217 284.1646782 1088.27734375 289.25390625 C1085.33922549 292.79678299 1082.21768822 296.15441772 1079.08349609 299.52197266 C1076.11269934 302.73316873 1073.30031679 306.02636841 1070.5625 309.4375 C1066.71954521 314.21541338 1062.63168671 318.68994984 1058.44384766 323.16162109 C1054.52093146 327.37429105 1050.88088976 331.76413555 1047.27734375 336.25390625 C1044.33922549 339.79678299 1041.21768822 343.15441772 1038.08349609 346.52197266 C1035.11269934 349.73316873 1032.30031679 353.02636841 1029.5625 356.4375 C1025.71954521 361.21541338 1021.63168671 365.68994984 1017.44384766 370.16162109 C1013.52093146 374.37429105 1009.88088976 378.76413555 1006.27734375 383.25390625 C1003.33922549 386.79678299 1000.21768822 390.15441772 997.08349609 393.52197266 C994.11269934 396.73316873 991.30031679 400.02636841 988.5625 403.4375 C984.71889943 408.21621628 980.63039836 412.69157687 976.44165039 417.16381836 C973.32446055 420.51099327 970.36426202 423.93005023 967.5 427.5 C964.15698041 431.6666621 960.64884863 435.60419812 957 439.5 C952.54125556 444.26088994 948.3620217 449.1646782 944.27734375 454.25390625 C941.33922549 457.79678299 938.21768822 461.15441772 935.08349609 464.52197266 C932.11269934 467.73316873 929.30031679 471.02636841 926.5625 474.4375 C922.71954521 479.21541338 918.63168671 483.68994984 914.44384766 488.16162109 C910.52093146 492.37429105 906.88088976 496.76413555 903.27734375 501.25390625 C900.33922549 504.79678299 897.21768822 508.15441772 894.08349609 511.52197266 C891.11269934 514.73316873 888.30031679 518.02636841 885.5625 521.4375 C881.71954521 526.21541338 877.63168671 530.68994984 873.44384766 535.16162109 C869.52093146 539.37429105 865.88088976 543.76413555 862.27734375 548.25390625 C859.33922549 551.79678299 856.21768822 555.15441772 853.08349609 558.52197266 C850.11269934 561.73316873 847.30031679 565.02636841 844.5625 568.4375 C840.71889943 573.21621628 836.63039836 577.69157687 832.44165039 582.16381836 C829.32446055 585.51099327 826.36426202 588.93005023 823.5 592.5 C820.15697048 596.66667448 816.64875887 600.60410036 813 604.5 C808.50488551 609.30189007 804.24228044 614.22632369 800.1328125 619.3671875 C798.40737604 621.49712189 796.65299649 623.58616606 794.86669922 625.66455078 C794.32906952 626.29048126 793.79143982 626.91641174 793.23751831 627.56130981 C792.82913727 628.03607758 792.42075623 628.51084534 792 629 C793.08387497 629.00808685 794.16774994 629.01617371 795.2844696 629.02450562 C892.0226456 629.75373529 988.72184825 631.24616114 1757.9375 749.5625 C1764.84808629 756.73269687 1767.42344179 763.21665764 1767.265625 773.1328125 C1766.41231412 782.34355054 1760.55405976 788.89960859 1754 795 C1686.90611865 849.49628193 1567.36028544 858.1366996 1485 870 C1483.56977509 870.20629028 1483.56977509 870.20629028 1482.11065674 870.41674805 C1397.00599458 882.63148005 1311.13987856 890.59861314 1000.875 908.125 C999.67222412 908.16370209 998.46944824 908.20240417 997.23022461 908.24227905 C988.48747438 908.51966707 979.74411975 908.76995104 971 909 C969.84048199 909.03051264 969.84048199 909.03051264 968.65753937 909.06164169 C939.39853738 909.82530867 910.14103483 910.26358526 880.8735733 910.53263092 C877.55257207 910.56316594 874.23157772 910.59438433 870.9105835 910.62567139 C835.27266245 910.95890302 799.63947421 911.22213093 764 911 C763.12734497 910.99468262 762.25468994 910.98936523 761.35559082 910.98388672 C701.2218729 910.61556539 641.10578491 909.92944257 581 908 C579.83317059 907.96267635 579.83317059 907.96267635 578.64276886 907.92459869 C491.9617113 905.14217448 405.32916542 900.26483977 174 879 C172.94018921 878.88245361 171.88037842 878.76490723 170.78845215 878.64379883 C118.97459581 872.87331565 67.21216603 864.70807355 16 855 C14.5763916 854.73023346 14.5763916 854.73023346 13.12402344 854.45501709 C-40.19207995 844.30548603 -96.96535588 833.29798219 -145 807 C-146.06863281 806.42894531 -147.13726562 805.85789062 -148.23828125 805.26953125 C-160.32520027 798.55798918 -172.78592841 789.81279022 -177 776 C-177.88313575 767.83099427 -177.15413207 761.1271459 -172.11328125 754.53125 C-118.77250566 692.71925176 14.86098626 684.69065403 89 673 C90.49451691 672.76343689 90.49451691 672.76343689 92.01922607 672.52209473 C174.54606284 659.49235601 257.95391797 652.3372787 361.7281189 644.17501068 C363.85955553 644.01081891 365.99093997 643.84596545 368.12231445 643.68096924 C447.25153771 637.57879415 526.67849484 634.36223115 606 632 C606.86806778 631.97397705 607.73613556 631.9479541 608.63050842 631.92114258 C668.09286603 630.14196955 727.5133439 629.72755052 787 630 C783.75118848 620.83291184 780.50107174 611.66628679 777.25 602.5 C777.00331699 601.80447777 776.75663399 601.10895554 776.50247574 600.39235687 C769.25566151 579.9609864 761.98644107 559.5378181 754.6875 539.125 C748.24799817 521.11555136 741.83800723 503.09605643 735.46185303 485.06408691 C729.77702601 468.98970245 724.05291208 452.92961201 718.3125 436.875 C711.0980501 416.69700852 703.9123779 396.50901714 696.75 376.3125 C696.27945083 374.98571729 695.8089003 373.65893506 695.33834839 372.33215332 C693.50134832 367.15239704 691.66446084 361.97260085 689.82771301 356.79275513 C685.84756831 345.56871488 681.86389977 334.34593186 677.875 323.125 C677.55972351 322.23808472 677.24444702 321.35116943 676.9196167 320.43737793 C671.83991512 306.15021115 666.73976803 291.87038514 661.63635254 277.5916748 C654.10808058 256.52810463 646.60257707 235.45660935 639.125 214.375 C638.89975899 213.74001839 638.67451797 213.10503677 638.44245148 212.45081329 C633.67128343 199.00026806 628.90294057 185.54872204 624.13635063 172.0965538 C622.08255115 166.30050403 620.02807103 160.50469576 617.97317696 154.70903397 C616.50806914 150.57662873 615.0438915 146.44389553 613.58044243 142.3109026 C612.89518123 140.3761156 612.20945916 138.44149269 611.52352905 136.50694275 C610.68798061 134.15041449 609.85315733 131.79362894 609.01919556 129.4365387 C608.64902313 128.39327927 608.27885071 127.35001984 607.89746094 126.27514648 C607.57743103 125.3718309 607.25740112 124.46851532 606.92767334 123.53782654 C606.29029366 121.79415342 605.60518675 120.06742147 604.88140869 118.35780334 C604 116 604 116 604 113 C601.36 113 598.72 113 596 113 C596.51046875 114.71703125 596.51046875 114.71703125 597.03125 116.46875 C598.74414748 122.29680853 600.37321768 128.14742908 602 134 C602.33161133 135.17320801 602.66322266 136.34641602 603.00488281 137.55517578 C621.37566666 203.25805003 613.0214555 261.77981894 579.85229492 321.34814453 C572.90268887 333.60623847 564.85198864 345.04799003 556 356 C555.36384766 356.79277344 555.36384766 356.79277344 554.71484375 357.6015625 C542.47431475 372.72866401 528.55046243 387.26705748 513 399 C511.69540631 400.01928874 510.39213347 401.04026925 509.08984375 402.0625 C500.00479806 409.154938 490.74814624 415.84957962 481 422 C480.28602051 422.45165527 479.57204102 422.90331055 478.83642578 423.36865234 C399.9616171 472.85839571 306.59307873 495.8768049 79.69014556 515.31061546 C72.67578388 515.28858157 65.66143908 515.28461303 58.64704774 515.2812262 C46.14959584 515.27474479 33.65220443 515.25501651 21.15478516 515.22631836 C9.05257458 515.19855755 -3.04961926 515.17743359 -15.15185547 515.16479492 C-15.90444106 515.16400675 -16.65702664 515.16321858 -17.43241785 515.16240653 C-21.20989081 515.15848993 -24.98736388 515.15469916 -28.76483703 515.15097082 C-59.84326861 515.12013535 -90.92162491 515.06730356 -122 515 C-121.50717021 509.32192681 -120.88899849 503.81014632 -119.59239197 498.24871826 C-119.3039315 496.99750718 -119.01547104 495.7462961 -118.71826935 494.45716953 C-118.39814344 493.09739754 -118.07790584 491.73765185 -117.75756836 490.37792969 C-117.41704062 488.91159698 -117.07707434 487.4451338 -116.73761749 485.97855282 C-116.00177488 482.80499336 -115.26195639 479.63239661 -114.51904106 476.46048546 C-113.310589 471.30084909 -112.11103162 466.13916706 -110.91236877 460.97724915 C-109.17256408 453.48908802 -107.42855625 446.00191665 -105.68164062 438.51541138 C-101.50340232 420.60841281 -97.34356457 402.69713429 -93.18225479 384.78619576 C-92.2203835 380.64630376 -91.25817457 376.50649045 -90.295681 372.36674309 C-82.95487583 340.79269086 -75.66277843 309.20770271 -68.41015625 277.61328125 C-67.94167846 275.57277477 -67.47319742 273.53226904 -67.00471306 271.49176407 C-62.72398779 252.84572281 -58.44715398 234.19879096 -54.17529172 215.55071718 C-52.50472317 208.25867792 -50.83244847 200.96703121 -49.15893203 193.67566794 C-48.00681906 188.65543671 -46.85698174 183.6346919 -45.70898396 178.61351812 C-45.0143534 175.57766374 -44.31762611 172.54229359 -43.62027371 169.50706339 C-43.2999839 168.1110095 -42.98058103 166.71475179 -42.66212356 165.31827879 C-42.2314026 163.43003748 -41.79726058 161.54257748 -41.36291504 159.65516663 C-41.12211464 158.60376527 -40.88131424 157.55236391 -40.63321686 156.46910191 C-40 154 -40 154 -39 152 C27.66 152 94.32 152 163 152 C161.76606535 158.78664056 160.50631303 165.48403752 158.95410156 172.19165039 C158.75755006 173.0502148 158.56099855 173.9087792 158.35849094 174.79336071 C157.70492606 177.64534698 157.04779594 180.49649894 156.390625 183.34765625 C155.9144878 185.42164592 155.43855696 187.49568297 154.96281433 189.56976318 C153.6661478 195.21966081 152.36626605 200.86881433 151.06574631 206.51782608 C149.97277775 211.26711773 148.88167954 216.01683825 147.79057598 220.76655865 C133.90979782 281.18906617 119.954762 341.59454508 106 402 C110.84664551 401.87509654 115.69320786 401.74741283 120.53971863 401.61738586 C122.18111796 401.57371273 123.82253611 401.53073968 125.463974 401.48854065 C189.18239888 399.84692256 253.21589323 390.23770374 311 362 C311.7321875 361.64615234 312.464375 361.29230469 313.21875 360.92773438 C328.86341793 353.28699031 342.79280634 343.30167816 356 332 C356.72574219 331.39671875 357.45148437 330.7934375 358.19921875 330.171875 C362.96540494 326.14104325 367.01994462 321.79902832 371 317 C371.90604593 315.96466513 372.81231382 314.92952448 373.71875 313.89453125 C398.50189205 284.9747763 409.15837313 245.55198181 407 208 C404.83084062 188.87662765 393.00244683 171.47986929 378.77734375 159.18359375 C345.96392995 133.38514324 302.24808921 123.19888287 261.75 117.8125 C260.59935059 117.6575708 259.44870117 117.5026416 258.26318359 117.34301758 C236.33419664 114.60450303 214.32012862 113.7011002 192.23925781 113.68115234 C189.81151001 113.67181759 187.38376531 113.6616439 184.95602417 113.65071106 C178.46616025 113.62379598 171.97631753 113.60837824 165.486413 113.59528303 C159.36073166 113.58202 153.23508791 113.55798375 147.10943684 113.53501268 C135.00136091 113.48988947 122.89327535 113.45313496 110.78515625 113.421875 C99.04490479 113.39154633 87.30467663 113.35713219 75.56445312 113.31738281 C74.47328614 113.31369049 74.47328614 113.31369049 73.36007538 113.30992357 C69.7095714 113.29754621 66.05906768 113.28509021 62.40856409 113.27259517 C32.27240853 113.16954544 2.13622527 113.08031778 -28 113 C-26.76541542 105.78905648 -25.28230069 98.69613419 -23.49389648 91.60327148 C-23.25137146 90.62952072 -23.00884644 89.65576996 -22.75897217 88.6525116 C-21.9664744 85.47449604 -21.1689302 82.29777285 -20.37109375 79.12109375 C-19.81560103 76.89964207 -19.26035283 74.67812923 -18.70533752 72.45655823 C-17.54674709 67.82228582 -16.38574299 63.18862715 -15.22290039 58.55541992 C-13.73029123 52.60778449 -12.24295526 46.65884566 -10.75729275 40.7094717 C-9.61385902 36.13240349 -8.46808662 31.55592336 -7.32155037 26.97963142 C-6.77189362 24.78485909 -6.22287448 22.58992698 -5.6744976 20.39483452 C-4.91088829 17.34002807 -4.14423801 14.28600134 -3.37670898 11.23217773 C-3.14967789 10.32157593 -2.92264679 9.41097412 -2.68873596 8.47277832 C-2.47989777 7.64451035 -2.27105957 6.81624237 -2.05589294 5.96287537 C-1.87505378 5.24157157 -1.69421461 4.52026777 -1.50789547 3.77710629 C-1 2 -1 2 0 0 Z M1179 732 C1178.36707031 732.60972656 1177.73414063 733.21945312 1177.08203125 733.84765625 C1167.48059242 743.8306092 1162.07861444 758.1576992 1161.625 771.875 C1162.18771422 791.41653007 1170.39129295 808.54669645 1184.51171875 821.88671875 C1209.65413125 843.24000786 1241.39281993 851.22313236 1273.8125 851.25 C1274.54476807 851.25067474 1275.27703613 851.25134949 1276.03149414 851.25204468 C1287.89970683 851.23471338 1299.39474279 850.63767859 1311 848 C1311.70366699 847.8443457 1312.40733398 847.68869141 1313.13232422 847.52832031 C1338.80690008 841.58562569 1362.94709418 827.91099341 1377.375 805.5 C1386.12387703 790.6534208 1388.30109412 774.2243602 1385.3515625 757.2734375 C1379.26312775 737.55107195 1362.86236563 722.80605189 1345.17578125 713.3671875 C1293.62563039 687.04339488 1221.53780594 689.61772534 1179 732 Z M199 702 C201.64 706.62 204.28 711.24 207 716 C207.97324219 717.711875 208.94648438 719.42375 209.94921875 721.1875 C215.4781284 730.91154315 221.08585567 740.58381994 226.79174805 750.20507812 C231.38750535 757.95470688 235.94778953 765.72475623 240.5 773.5 C245.48336859 782.00987976 250.47674297 790.51357763 255.5 799 C260.70827175 807.80035558 265.89005318 816.61605877 271.0625 825.4375 C271.43052734 826.06487061 271.79855469 826.69224121 272.17773438 827.33862305 C273.23482554 829.14084961 274.29134089 830.94341238 275.34765625 832.74609375 C275.95617432 833.78435303 276.56469238 834.8226123 277.19165039 835.89233398 C279.14624315 839.25132025 281.07589611 842.6234721 283 846 C288.71053543 846.2481016 294.41790846 846.42904829 300.13256836 846.54931641 C302.07387955 846.59946277 304.01481565 846.66760381 305.95483398 846.75439453 C316.73209375 847.64125705 316.73209375 847.64125705 326.55859375 844.25244141 C328.45865673 841.60537786 329.69023442 838.9830313 331 836 C332.0243795 834.27584633 333.0502924 832.55235007 334.10636902 830.84742737 C335.26634273 828.96868976 336.39043438 827.07244138 337.50634766 825.16723633 C339.97966854 820.94603227 342.46454599 816.73175647 344.953125 812.51953125 C345.37796173 811.79982651 345.80279846 811.08012177 346.24050903 810.33860779 C350.30732169 803.45888479 354.45914311 796.6325269 358.625 789.8125 C364.71421962 779.83598663 370.66805307 769.78755074 376.55499268 759.69052124 C381.94718658 750.44664863 387.43425569 741.26540536 393 732.125 C393.53679886 731.24294891 393.53679886 731.24294891 394.08444214 730.34307861 C396.92301602 725.67972465 399.76539415 721.01870196 402.61376953 716.36132812 C403.93373978 714.20145748 405.24880974 712.03869331 406.5625 709.875 C407.24441406 708.75867188 407.92632813 707.64234375 408.62890625 706.4921875 C410.16067473 704.18202239 410.16067473 704.18202239 410 702 C402.13530474 701.74624818 394.27166517 701.57125268 386.40380859 701.45068359 C383.72672989 701.40605209 381.05499313 701.33226306 378.37841797 701.24560547 C374.53023716 701.12414414 370.68568643 701.06756259 366.8359375 701.0234375 C365.04499161 700.94601822 365.04499161 700.94601822 363.21786499 700.86703491 C359.86586756 700.86477581 357.19198203 700.96955885 354 702 C351.12730657 704.97840705 349.61128993 708.22276837 348 712 C347.09906616 713.57672485 347.09906616 713.57672485 346.17993164 715.18530273 C345.67840576 716.09223877 345.17687988 716.9991748 344.66015625 717.93359375 C344.07991699 718.98071533 343.49967773 720.02783691 342.90185547 721.10668945 C342.29486816 722.20585693 341.68788086 723.30502441 341.0625 724.4375 C340.40793226 725.61885421 339.75314217 726.80008526 339.09814453 727.98120117 C336.41120932 732.82797005 333.72864969 737.67714179 331.05322266 742.53027344 C324.38190333 754.63046633 317.67573947 766.7041742 310.6875 778.625 C310.14206543 779.56190674 309.59663086 780.49881348 309.03466797 781.46411133 C308.53209473 782.31384521 308.02952148 783.1635791 307.51171875 784.0390625 C307.07303467 784.78365723 306.63435059 785.52825195 306.18237305 786.29541016 C305 788 305 788 303 789 C302.73461426 788.13189697 302.46922852 787.26379395 302.19580078 786.36938477 C301.01355452 783.03819231 299.58923669 780.17267481 297.8671875 777.08984375 C297.23401611 775.9498291 296.60084473 774.80981445 295.94848633 773.63525391 C295.25739281 772.40263081 294.5662288 771.17004724 293.875 769.9375 C293.1566224 768.64791478 292.43877688 767.35803303 291.72143555 766.06787109 C290.22918168 763.38480248 288.73463879 760.70302707 287.23876953 758.02197266 C285.0927301 754.17153778 282.9633485 750.31211792 280.83984375 746.44921875 C280.50039734 745.8320549 280.16095093 745.21489105 279.81121826 744.57902527 C278.21365924 741.67414431 276.61688969 738.76883356 275.02099609 735.86303711 C268.77272187 724.52111591 262.37326465 713.27577591 256 702 C237.19 702 218.38 702 199 702 Z M502 702 C502 749.52 502 797.04 502 846 C519.16 846 536.32 846 554 846 C554 798.48 554 750.96 554 702 C536.84 702 519.68 702 502 702 Z M667 702 C667 749.52 667 797.04 667 846 C688.594375 846.12375 688.594375 846.12375 710.625 846.25 C715.12334473 846.28641602 719.62168945 846.32283203 724.25634766 846.36035156 C728.38871162 846.37375227 728.38871162 846.37375227 732.52108765 846.3817749 C734.32182809 846.38780475 736.12255538 846.40162936 737.92318726 846.42230225 C767.98425738 846.74932121 797.89279746 840.23928734 821 820 C821.70640625 819.42507813 822.4128125 818.85015625 823.140625 818.2578125 C831.24258317 811.54741203 836.8745956 803.65616635 841 794 C841.32097656 793.28972656 841.64195312 792.57945312 841.97265625 791.84765625 C846.28215279 780.44252355 845.44314608 765.17402487 841.32421875 753.88671875 C831.74206401 732.99818674 812.53664225 718.79217659 791.6875 710.25 C786.73461121 708.46262701 781.73675759 707.05361914 776.625 705.8125 C775.99037842 705.65749023 775.35575684 705.50248047 774.7019043 705.34277344 C760.71416137 702.16869162 746.9935674 701.72047898 732.72265625 701.8046875 C731.0302341 701.8076373 729.3378101 701.80967195 727.64538574 701.81079102 C721.45106221 701.82116982 715.25677804 701.84909163 709.0625 701.875 C695.181875 701.91625 681.30125 701.9575 667 702 Z M947 702 C947 749.52 947 797.04 947 846 C984.95 846 1022.9 846 1062 846 C1062 835.77 1062 825.54 1062 815 C1041.21 815 1020.42 815 999 815 C999 806.42 999 797.84 999 789 C1018.8 789 1038.6 789 1059 789 C1059 778.77 1059 768.54 1059 758 C1039.2 758 1019.4 758 999 758 C999 749.75 999 741.5 999 733 C1019.79 733 1040.58 733 1062 733 C1062 722.77 1062 712.54 1062 702 C1024.05 702 986.1 702 947 702 Z " fill="#FFFFFF" transform="translate(182,2)"/>
<path d="M0 0 C7.18351626 5.78365155 12.15329101 12.70667263 13.40625 22.01953125 C13.77672729 34.0446066 10.16101467 42.28607376 2.171875 50.9921875 C-11.36092995 64.26673281 -29.28566745 68.51919937 -47.68920898 68.42236328 C-65.69351233 67.95039234 -80.34465127 62.01058659 -93 49 C-100.51890548 40.71968637 -102.70172269 32.56658388 -102.40234375 21.4296875 C-101.27223869 11.79636472 -95.37528072 4.91514566 -88 -1 C-61.86914879 -18.94106004 -25.60189633 -19.13152628 0 0 Z " fill="#FFFFFF" transform="translate(1501,749)"/>
<path d="M0 0 C23.37808642 0 23.37808642 0 30 1.1875 C30.77778809 1.31987061 31.55557617 1.45224121 32.35693359 1.58862305 C45.34040391 3.9868351 57.65851847 9.58623745 65.4921875 20.53515625 C71.50440069 30.36341149 72.5904903 40.77368924 70.41015625 52.05078125 C67.40654805 61.83673055 61.07866237 68.62960173 52.15942383 73.38964844 C34.57014515 82.17916807 20.60434938 82 0 82 C0 54.94 0 27.88 0 0 Z " fill="#FFFFFF" transform="translate(901,735)"/>
<path d="M0 0 C4.62 0 9.24 0 14 0 C16.67698746 6.66257674 19.34273265 13.32953529 22 20 C22.28697754 20.71768555 22.57395508 21.43537109 22.86962891 22.17480469 C23.58522504 23.96852959 24.29297028 25.76538124 25 27.5625 C25.391875 28.55378906 25.78375 29.54507813 26.1875 30.56640625 C27 33 27 33 27 36 C27.66 36 28.32 36 29 36 C29.15637939 35.43619629 29.31275879 34.87239258 29.47387695 34.29150391 C31.62436748 26.81602483 34.35794828 19.616392 37.1875 12.375 C37.88262695 10.58255859 37.88262695 10.58255859 38.59179688 8.75390625 C39.72447927 5.83462174 40.86176621 2.91712449 42 0 C46.95 0 51.9 0 57 0 C57 17.16 57 34.32 57 52 C53.7 52 50.4 52 47 52 C46.67 40.12 46.34 28.24 46 16 C41.38 27.88 36.76 39.76 32 52 C29.69 52 27.38 52 25 52 C18.60809272 40.5697658 14.49733431 28.26545721 10 16 C9.67 27.88 9.34 39.76 9 52 C6.03 52 3.06 52 0 52 C0 34.84 0 17.68 0 0 Z " fill="#FFFFFF" transform="translate(1860,879)"/>
<path d="M0 0 C13.86 0 27.72 0 42 0 C42 2.64 42 5.28 42 8 C36.72 8 31.44 8 26 8 C26 22.52 26 37.04 26 52 C22.7 52 19.4 52 16 52 C16 37.48 16 22.96 16 8 C10.72 8 5.44 8 0 8 C0 5.36 0 2.72 0 0 Z " fill="#FFFFFF" transform="translate(1809,879)"/>
</svg>
